# Blender v3.0.1 OBJ File: ''
# www.blender.org
mtllib umd.mtl
o Cube.001_Cube.002
v -1.000000 -0.500000 11.400001
v -1.000000 0.500000 11.400001
v -1.000000 -0.500000 -11.400001
v -1.000000 0.500000 -11.400001
v 1.000000 -0.500000 11.400001
v 1.000000 0.500000 11.400001
v 1.000000 -0.500000 -11.400001
v 1.000000 0.500000 -11.400001
vt 0.501455 0.904634
vt 0.095075 0.886811
vt 0.501455 0.886811
vt 0.546484 0.985354
vt 0.573877 0.930569
vt 0.573877 0.985354
vt 0.095610 0.940736
vt 0.501955 0.958558
vt 0.095610 0.958558
vt 0.517338 0.984420
vt 0.544731 0.929635
vt 0.544731 0.984420
vt 0.501888 0.995424
vt 0.096499 0.959863
vt 0.501888 0.959863
vt 0.095075 0.904634
vt 0.501455 0.940282
vt 0.095075 0.940282
vt 0.546484 0.930569
vt 0.501955 0.940736
vt 0.517338 0.929635
vt 0.096499 0.995424
vn -1.0000 0.0000 0.0000
vn 0.0000 0.0000 -1.0000
vn 1.0000 0.0000 0.0000
vn 0.0000 0.0000 1.0000
vn 0.0000 -1.0000 0.0000
vn 0.0000 1.0000 0.0000
usemtl Material.002
s off
f 2/1/1 3/2/1 1/3/1
f 4/4/2 7/5/2 3/6/2
f 8/7/3 5/8/3 7/9/3
f 6/10/4 1/11/4 5/12/4
f 7/13/5 1/14/5 3/15/5
f 4/16/6 6/17/6 8/18/6
f 2/1/1 4/16/1 3/2/1
f 4/4/2 8/19/2 7/5/2
f 8/7/3 6/20/3 5/8/3
f 6/10/4 2/21/4 1/11/4
f 7/13/5 5/22/5 1/14/5
f 4/16/6 2/1/6 6/17/6
o Cube.002_Cube.003
v -1.000000 -0.500000 11.400001
v -1.000000 0.500000 11.400001
v -1.000000 -0.500000 -11.400001
v -1.000000 0.500000 -11.400001
v 1.000000 -0.500000 11.400001
v 1.000000 0.500000 11.400001
v 1.000000 -0.500000 -11.400001
v 1.000000 0.500000 -11.400001
vt 0.501455 0.904634
vt 0.095075 0.886811
vt 0.501455 0.886811
vt 0.546484 0.985354
vt 0.573877 0.930569
vt 0.573877 0.985354
vt 0.095610 0.940736
vt 0.501955 0.958558
vt 0.095610 0.958558
vt 0.517338 0.984420
vt 0.544731 0.929635
vt 0.544731 0.984420
vt 0.501888 0.995424
vt 0.096499 0.959863
vt 0.501888 0.959863
vt 0.095075 0.904634
vt 0.501455 0.940282
vt 0.095075 0.940282
vt 0.546484 0.930569
vt 0.501955 0.940736
vt 0.517338 0.929635
vt 0.096499 0.995424
vn -1.0000 0.0000 0.0000
vn 0.0000 0.0000 -1.0000
vn 1.0000 0.0000 0.0000
vn 0.0000 0.0000 1.0000
vn 0.0000 -1.0000 0.0000
vn 0.0000 1.0000 0.0000
usemtl Material.001
s off
f 10/23/7 11/24/7 9/25/7
f 12/26/8 15/27/8 11/28/8
f 16/29/9 13/30/9 15/31/9
f 14/32/10 9/33/10 13/34/10
f 15/35/11 9/36/11 11/37/11
f 12/38/12 14/39/12 16/40/12
f 10/23/7 12/38/7 11/24/7
f 12/26/8 16/41/8 15/27/8
f 16/29/9 14/42/9 13/30/9
f 14/32/10 10/43/10 9/33/10
f 15/35/11 13/44/11 9/36/11
f 12/38/12 10/23/12 14/39/12
o Cube_Cube.004
v -26.700001 -4.500000 13.400001
v -24.700001 0.500000 11.400001
v -26.700001 -4.500000 -13.400001
v -24.700001 0.500000 -11.400001
v 26.700001 -4.500000 13.400001
v 24.700001 0.500000 11.400001
v 26.700001 -4.500000 -13.400001
v 24.700001 0.500000 -11.400001
v -26.700001 0.500000 13.400001
v -26.700001 0.500000 -13.400001
v 26.700001 0.500000 -13.400001
v 26.700001 0.500000 13.400001
v -26.700001 0.500000 13.400001
v -26.700001 0.500000 -13.400001
v 26.700001 0.500000 -13.400001
v 26.700001 0.500000 13.400001
v -26.700001 0.500000 13.400001
v -26.700001 0.500000 -13.400001
v 26.700001 0.500000 -13.400001
v 26.700001 0.500000 13.400001
v -24.700001 -4.100000 11.400001
v -24.700001 -4.100000 -11.400001
v 24.700001 -2.400000 -11.400001
v 24.700001 -2.400000 11.400001
v -17.600000 -4.100000 -11.400001
v -17.600000 -4.100000 11.400001
vt 0.012563 0.113309
vt 0.094508 0.113309
vt 0.094508 0.214393
vt 0.997961 0.006118
vt 0.000000 1.000000
vt 0.000000 0.000000
vt 0.997961 0.006118
vt 0.000000 1.000000
vt 0.000000 0.000000
vt 0.997961 0.006118
vt 0.000000 1.000000
vt 0.000000 0.000000
vt 0.997961 0.006118
vt 0.000000 1.000000
vt 0.000000 0.000000
vt 0.997961 0.006118
vt 0.000000 1.000000
vt 0.000000 0.000000
vt 0.997961 0.006118
vt 0.000000 1.000000
vt 0.000000 0.000000
vt 0.997961 0.006118
vt 0.000000 1.000000
vt 0.000000 0.000000
vt 0.997961 0.006118
vt 0.000000 1.000000
vt 0.000000 0.000000
vt 0.094634 0.113309
vt 0.500799 0.214373
vt 0.094634 0.214373
vt 0.094833 0.881968
vt 0.500869 0.817347
vt 0.500869 0.881968
vt 0.501303 0.009665
vt 0.094558 0.112517
vt 0.094558 0.009665
vt 0.583172 0.816943
vt 0.531510 0.816943
vt 0.501226 0.214708
vt 0.500799 0.816973
vt 0.094634 0.816973
vt 0.064224 0.816628
vt 0.012563 0.816628
vt 1.000000 1.000000
vt 1.000000 1.000000
vt 1.000000 1.000000
vt 1.000000 1.000000
vt 1.000000 1.000000
vt 1.000000 1.000000
vt 1.000000 1.000000
vt 1.000000 1.000000
vt 0.500799 0.113309
vt 0.094833 0.817347
vt 0.501303 0.112517
vt 0.501226 0.113624
vt 0.583172 0.113624
vt 7.358372 15.760730
vt -8.522066 16.989519
vt -7.241407 15.760730
vt 7.358372 -14.590750
vt 8.639060 16.989519
vt -7.241407 -14.590750
vt 8.639060 -15.819530
vt -8.522066 -15.819530
vt 9.136343 0.265342
vt 12.250460 -14.363310
vt 12.250460 0.265342
vt 2.908114 14.784800
vt 6.022230 -14.363310
vt 6.022230 14.784800
vt 12.250460 0.265342
vt 15.364570 -14.363310
vt 15.364570 0.265342
vt 6.022230 14.784800
vt 9.136351 -14.363310
vt 9.136343 14.784800
vt 2.908132 14.784800
vt -13.783529 -14.363310
vt 2.908132 -14.363310
vt 9.136343 -14.363310
vt 2.908114 -14.363310
vt 12.250460 -14.363310
vt 6.022230 -14.363310
vt -13.783529 14.784800
vn 0.0000 0.0000 1.0000
vn 0.0000 1.0000 0.0000
vn -1.0000 0.0000 0.0000
vn 1.0000 0.0000 0.0000
vn -0.0000 0.0000 -1.0000
vn -0.0402 0.9992 0.0000
vn 0.0000 -1.0000 0.0000
usemtl Material.001
s off
f 20/45/13 38/46/13 41/47/13
f 30/48/13 25/49/13 29/50/13
f 31/51/13 26/52/13 30/53/13
f 32/54/13 27/55/13 31/56/13
f 29/57/13 28/58/13 32/59/13
f 34/60/13 29/61/13 33/62/13
f 35/63/13 30/64/13 34/65/13
f 36/66/13 31/67/13 35/68/13
f 33/69/13 32/70/13 36/71/13
f 38/72/14 42/73/14 41/74/14
f 24/75/15 40/76/15 22/77/15
f 18/78/16 38/79/16 20/80/16
f 22/81/17 40/82/17 42/83/17
f 41/74/18 40/84/18 39/85/18
f 39/86/13 24/87/13 41/47/13
f 24/87/13 20/45/13 41/47/13
f 30/48/13 26/88/13 25/49/13
f 31/51/13 27/89/13 26/52/13
f 32/54/13 28/90/13 27/55/13
f 29/57/13 25/91/13 28/58/13
f 34/60/13 30/92/13 29/61/13
f 35/63/13 31/93/13 30/64/13
f 36/66/13 32/94/13 31/67/13
f 33/69/13 29/95/13 32/70/13
f 38/72/14 37/96/14 42/73/14
f 24/75/15 39/97/15 40/76/15
f 18/78/16 37/98/16 38/79/16
f 37/99/17 18/100/17 42/83/17
f 18/100/17 22/81/17 42/83/17
f 41/74/18 42/73/18 40/84/18
usemtl Material.005
f 20/101/14 33/102/14 18/103/14
f 24/104/14 34/105/14 20/101/14
f 22/106/14 35/107/14 24/104/14
f 18/103/14 36/108/14 22/106/14
f 20/101/14 34/105/14 33/102/14
f 24/104/14 35/107/14 34/105/14
f 22/106/14 36/108/14 35/107/14
f 18/103/14 33/102/14 36/108/14
usemtl Material.006
f 25/109/15 19/110/15 17/111/15
f 26/112/17 23/113/17 19/114/17
f 27/115/16 21/116/16 23/117/16
f 28/118/13 17/119/13 21/120/13
f 23/121/19 17/122/19 19/123/19
f 25/109/15 26/124/15 19/110/15
f 26/112/17 27/125/17 23/113/17
f 27/115/16 28/126/16 21/116/16
f 28/118/13 25/127/13 17/119/13
f 23/121/19 21/128/19 17/122/19
